<svg xmlns="http://www.w3.org/2000/svg" width="21" height="21" version="1.1" xmlns:xlink="http://www.w3.org/1999/xlink" x="0" y="0" viewBox="0 0 4.233 4.233" style="enable-background:new 0 0 512 512" xml:space="preserve" class=""><g><path d="M2.053.265c-.294.001-.568.013-.818.03C.73.334.33.736.296 1.24a12.339 12.339 0 0 0 0 1.758c.038.505.44.905.945.94.585.041 1.173.041 1.758 0 .504-.038.904-.44.939-.945.041-.586.041-1.174 0-1.76a1.016 1.016 0 0 0-.945-.937 12.319 12.319 0 0 0-.94-.031zm.062.907c.217 0 .395.178.395.394a.395.395 0 0 1-.788 0c0-.216.176-.394.393-.394zm-.034.944a1.63 1.63 0 0 1 .641.118.079.079 0 0 1 .001 0 .557.557 0 0 1 .339.51v.002a.317.317 0 0 1-.316.315h-1.26a.316.316 0 0 1-.313-.313.507.507 0 0 1 .27-.485.079.079 0 0 1 .002-.003c.202-.091.418-.14.636-.144z" 
paint-order="stroke markers fill" opacity="1" data-original="#000000" class=""></path></g></svg>